<svg class="main-svg" xmlns="http://www.w3.org/2000/svg" xmlns:xlink="http://www.w3.org/1999/xlink" width="700" height="450" style="" viewBox="0 0 700 450"><rect x="0" y="0" width="700" height="450" style="fill: rgb(255, 255, 255); fill-opacity: 1;"/><defs id="defs-d2b61f"><g class="clips"><clipPath id="clipd2b61fxyplot" class="plotclip"><rect width="580" height="330"/></clipPath><clipPath class="axesclip" id="clipd2b61fx"><rect x="60" y="0" width="580" height="450"/></clipPath><clipPath class="axesclip" id="clipd2b61fy"><rect x="0" y="60" width="700" height="330"/></clipPath><clipPath class="axesclip" id="clipd2b61fxy"><rect x="60" y="60" width="580" height="330"/></clipPath></g><g class="gradients"/></defs><g class="bglayer"/><g class="layer-below"><g class="imagelayer"/><g class="shapelayer"/></g><g class="cartesianlayer"><g class="subplot xy"><g class="layer-subplot"><g class="shapelayer"/><g class="imagelayer"/></g><g class="gridlayer"><g class="x"><path class="xgrid crisp" transform="translate(224.77,0)" d="M0,60v330" style="stroke: rgb(238, 238, 238); stroke-opacity: 1; stroke-width: 1px;"/><path class="xgrid crisp" transform="translate(389.55,0)" d="M0,60v330" style="stroke: rgb(238, 238, 238); stroke-opacity: 1; stroke-width: 1px;"/><path class="xgrid crisp" transform="translate(554.3199999999999,0)" d="M0,60v330" style="stroke: rgb(238, 238, 238); stroke-opacity: 1; stroke-width: 1px;"/></g><g class="y"><path class="ygrid crisp" transform="translate(0,384.85)" d="M60,0h580" style="stroke: rgb(238, 238, 238); stroke-opacity: 1; stroke-width: 1px;"/><path class="ygrid crisp" transform="translate(0,347.77)" d="M60,0h580" style="stroke: rgb(238, 238, 238); stroke-opacity: 1; stroke-width: 1px;"/><path class="ygrid crisp" transform="translate(0,310.68)" d="M60,0h580" style="stroke: rgb(238, 238, 238); stroke-opacity: 1; stroke-width: 1px;"/><path class="ygrid crisp" transform="translate(0,273.6)" d="M60,0h580" style="stroke: rgb(238, 238, 238); stroke-opacity: 1; stroke-width: 1px;"/><path class="ygrid crisp" transform="translate(0,236.51)" d="M60,0h580" style="stroke: rgb(238, 238, 238); stroke-opacity: 1; stroke-width: 1px;"/><path class="ygrid crisp" transform="translate(0,199.43)" d="M60,0h580" style="stroke: rgb(238, 238, 238); stroke-opacity: 1; stroke-width: 1px;"/><path class="ygrid crisp" transform="translate(0,162.34)" d="M60,0h580" style="stroke: rgb(238, 238, 238); stroke-opacity: 1; stroke-width: 1px;"/><path class="ygrid crisp" transform="translate(0,125.26)" d="M60,0h580" style="stroke: rgb(238, 238, 238); stroke-opacity: 1; stroke-width: 1px;"/><path class="ygrid crisp" transform="translate(0,88.18)" d="M60,0h580" style="stroke: rgb(238, 238, 238); stroke-opacity: 1; stroke-width: 1px;"/></g></g><g class="zerolinelayer"><path class="xzl zl crisp" transform="translate(60,0)" d="M0,60v330" style="stroke: rgb(68, 68, 68); stroke-opacity: 1; stroke-width: 1px;"/></g><path class="xlines-below"/><path class="ylines-below"/><g class="overlines-below"/><g class="xaxislayer-below"/><g class="yaxislayer-below"/><g class="overaxes-below"/><g class="plot" transform="translate(60, 60)" clip-path="url('#clipd2b61fxyplot')"><g class="scatterlayer mlayer"><g class="trace scatter trace9d037c" style="stroke-miterlimit: 2; opacity: 1;"><g class="fills"/><g class="errorbars"/><g class="lines"><path class="js-line" d="M0,313.5L3.3,23.81L6.59,37.69L9.89,16.5L13.18,50.81L16.48,42.48L19.77,47.99L23.07,52.37L26.36,68.15L29.66,69.78L32.95,81.52L36.25,89.25L39.55,81.43L42.84,83.94L46.14,96.43L49.43,93.05L52.73,94.8L56.02,94.3L59.32,80.76L62.61,84.42L65.91,85.78L69.2,88.11L72.5,92.62L75.8,97.44L79.09,96.69L82.39,97.7L85.68,101.63L88.98,104.32L92.27,105.58L95.57,102.41L98.86,104.13L102.16,91.69L105.45,92.83L112.05,100.23L115.34,102.3L125.23,106.12L128.52,106.11L131.82,105.51L135.11,106.37L138.41,105.41L141.7,107.01L148.3,109.28L151.59,111.75L158.18,109.52L161.48,109.79L164.77,110.21L168.07,111.96L171.36,112.35L174.66,113.68L177.95,106.44L181.25,106.43L191.14,110.4L194.43,110.77L204.32,115.35L207.61,280.64L210.91,117.3L214.2,150.13L217.5,166.4L220.8,178.33L224.09,164.13L227.39,167.5L230.68,169.93L233.98,170.02L237.27,156.38L240.57,157.61L243.86,162.17L247.16,164.15L250.45,149.46L253.75,149.2L260.34,156.26L263.64,158.73L266.93,160.67L270.23,160.28L273.52,162.52L276.82,162.64L280.11,162.4L283.41,167.07L290,168.74L293.3,170.63L296.59,168.63L299.89,169.75L303.18,169.26L306.48,170.3L316.36,174.05L319.66,171.99L322.95,174.2L326.25,173.44L329.55,174.66L332.84,175.06L336.14,175.78L339.43,174.74L342.73,174.54L346.02,175.18L349.32,174.97L352.61,173.43L355.91,172.13L359.2,172.73L372.39,176.78L375.68,176.76L388.86,178.56L392.16,177.54L402.05,176.55L405.34,176.86L408.64,177.21L411.93,172.68L415.23,265.93L418.52,170.4L421.82,128.99L425.11,146.41L428.41,156.8L431.7,108.89L435,123.08L438.3,126.73L441.59,134.29L444.89,144.25L448.18,152.36L451.48,151.97L454.77,153.04L458.07,154.94L461.36,158.32L464.66,160.54L467.95,160.94L471.25,163.45L477.84,153.25L481.14,154.05L484.43,154.4L487.73,156.23L497.61,158.39L500.91,161.33L507.5,165.75L510.8,159.81L514.09,160.48L517.39,157.89L520.68,154.18L523.98,153.49L527.27,155.3L530.57,156.06L533.86,156.02L537.16,157.71L543.75,158.13L547.05,159.48L550.34,162.6L553.64,160.24L560.23,160.36L563.52,161.46L566.82,154.31L570.11,155.14L573.41,153.6L576.7,153.64L580,154.19" style="vector-effect: non-scaling-stroke; fill: none; stroke: rgb(31, 119, 180); stroke-opacity: 1; stroke-width: 2px; opacity: 1;"/></g><g class="points"/><g class="text"/></g></g></g><g class="overplot"/><path class="xlines-above crisp" d="M0,0" style="fill: none;"/><path class="ylines-above crisp" d="M0,0" style="fill: none;"/><g class="overlines-above"/><g class="xaxislayer-above"><g class="xtick"><text text-anchor="middle" x="0" y="403" transform="translate(60,0)" style="font-family: 'Open Sans', verdana, arial, sans-serif; font-size: 12px; fill: rgb(68, 68, 68); fill-opacity: 1; white-space: pre;">0</text></g><g class="xtick"><text text-anchor="middle" x="0" y="403" transform="translate(224.77,0)" style="font-family: 'Open Sans', verdana, arial, sans-serif; font-size: 12px; fill: rgb(68, 68, 68); fill-opacity: 1; white-space: pre;">50</text></g><g class="xtick"><text text-anchor="middle" x="0" y="403" transform="translate(389.55,0)" style="font-family: 'Open Sans', verdana, arial, sans-serif; font-size: 12px; fill: rgb(68, 68, 68); fill-opacity: 1; white-space: pre;">100</text></g><g class="xtick"><text text-anchor="middle" x="0" y="403" transform="translate(554.3199999999999,0)" style="font-family: 'Open Sans', verdana, arial, sans-serif; font-size: 12px; fill: rgb(68, 68, 68); fill-opacity: 1; white-space: pre;">150</text></g></g><g class="yaxislayer-above"><g class="ytick"><text text-anchor="end" x="59" y="4.199999999999999" transform="translate(0,384.85)" style="font-family: 'Open Sans', verdana, arial, sans-serif; font-size: 12px; fill: rgb(68, 68, 68); fill-opacity: 1; white-space: pre;">16</text></g><g class="ytick"><text text-anchor="end" x="59" y="4.199999999999999" transform="translate(0,347.77)" style="font-family: 'Open Sans', verdana, arial, sans-serif; font-size: 12px; fill: rgb(68, 68, 68); fill-opacity: 1; white-space: pre;">17</text></g><g class="ytick"><text text-anchor="end" x="59" y="4.199999999999999" transform="translate(0,310.68)" style="font-family: 'Open Sans', verdana, arial, sans-serif; font-size: 12px; fill: rgb(68, 68, 68); fill-opacity: 1; white-space: pre;">18</text></g><g class="ytick"><text text-anchor="end" x="59" y="4.199999999999999" transform="translate(0,273.6)" style="font-family: 'Open Sans', verdana, arial, sans-serif; font-size: 12px; fill: rgb(68, 68, 68); fill-opacity: 1; white-space: pre;">19</text></g><g class="ytick"><text text-anchor="end" x="59" y="4.199999999999999" transform="translate(0,236.51)" style="font-family: 'Open Sans', verdana, arial, sans-serif; font-size: 12px; fill: rgb(68, 68, 68); fill-opacity: 1; white-space: pre;">20</text></g><g class="ytick"><text text-anchor="end" x="59" y="4.199999999999999" transform="translate(0,199.43)" style="font-family: 'Open Sans', verdana, arial, sans-serif; font-size: 12px; fill: rgb(68, 68, 68); fill-opacity: 1; white-space: pre;">21</text></g><g class="ytick"><text text-anchor="end" x="59" y="4.199999999999999" transform="translate(0,162.34)" style="font-family: 'Open Sans', verdana, arial, sans-serif; font-size: 12px; fill: rgb(68, 68, 68); fill-opacity: 1; white-space: pre;">22</text></g><g class="ytick"><text text-anchor="end" x="59" y="4.199999999999999" transform="translate(0,125.26)" style="font-family: 'Open Sans', verdana, arial, sans-serif; font-size: 12px; fill: rgb(68, 68, 68); fill-opacity: 1; white-space: pre;">23</text></g><g class="ytick"><text text-anchor="end" x="59" y="4.199999999999999" transform="translate(0,88.18)" style="font-family: 'Open Sans', verdana, arial, sans-serif; font-size: 12px; fill: rgb(68, 68, 68); fill-opacity: 1; white-space: pre;">24</text></g></g><g class="overaxes-above"/></g></g><g class="polarlayer"/><g class="ternarylayer"/><g class="geolayer"/><g class="funnelarealayer"/><g class="pielayer"/><g class="treemaplayer"/><g class="sunburstlayer"/><g class="glimages"/><defs id="topdefs-d2b61f"><g class="clips"/></defs><g class="layer-above"><g class="imagelayer"/><g class="shapelayer"/></g><g class="infolayer"><g class="g-gtitle"><text class="gtitle" x="350" y="30" text-anchor="middle" dy="0em" style="font-family: 'Open Sans', verdana, arial, sans-serif; font-size: 17px; fill: rgb(68, 68, 68); opacity: 1; font-weight: normal; white-space: pre;">total_BR_loss</text></g><g class="g-xtitle"/><g class="g-ytitle"/></g></svg>