<svg class="main-svg" xmlns="http://www.w3.org/2000/svg" xmlns:xlink="http://www.w3.org/1999/xlink" width="700" height="450" style="" viewBox="0 0 700 450"><rect x="0" y="0" width="700" height="450" style="fill: rgb(255, 255, 255); fill-opacity: 1;"/><defs id="defs-0e5266"><g class="clips"><clipPath id="clip0e5266xyplot" class="plotclip"><rect width="580" height="330"/></clipPath><clipPath class="axesclip" id="clip0e5266x"><rect x="60" y="0" width="580" height="450"/></clipPath><clipPath class="axesclip" id="clip0e5266y"><rect x="0" y="60" width="700" height="330"/></clipPath><clipPath class="axesclip" id="clip0e5266xy"><rect x="60" y="60" width="580" height="330"/></clipPath></g><g class="gradients"/></defs><g class="bglayer"/><g class="layer-below"><g class="imagelayer"/><g class="shapelayer"/></g><g class="cartesianlayer"><g class="subplot xy"><g class="layer-subplot"><g class="shapelayer"/><g class="imagelayer"/></g><g class="gridlayer"><g class="x"><path class="xgrid crisp" transform="translate(224.77,0)" d="M0,60v330" style="stroke: rgb(238, 238, 238); stroke-opacity: 1; stroke-width: 1px;"/><path class="xgrid crisp" transform="translate(389.55,0)" d="M0,60v330" style="stroke: rgb(238, 238, 238); stroke-opacity: 1; stroke-width: 1px;"/><path class="xgrid crisp" transform="translate(554.3199999999999,0)" d="M0,60v330" style="stroke: rgb(238, 238, 238); stroke-opacity: 1; stroke-width: 1px;"/></g><g class="y"><path class="ygrid crisp" transform="translate(0,291.02)" d="M60,0h580" style="stroke: rgb(238, 238, 238); stroke-opacity: 1; stroke-width: 1px;"/><path class="ygrid crisp" transform="translate(0,208.54)" d="M60,0h580" style="stroke: rgb(238, 238, 238); stroke-opacity: 1; stroke-width: 1px;"/><path class="ygrid crisp" transform="translate(0,126.06)" d="M60,0h580" style="stroke: rgb(238, 238, 238); stroke-opacity: 1; stroke-width: 1px;"/></g></g><g class="zerolinelayer"><path class="xzl zl crisp" transform="translate(60,0)" d="M0,60v330" style="stroke: rgb(68, 68, 68); stroke-opacity: 1; stroke-width: 1px;"/><path class="yzl zl crisp" transform="translate(0,373.5)" d="M60,0h580" style="stroke: rgb(68, 68, 68); stroke-opacity: 1; stroke-width: 1px;"/></g><path class="xlines-below"/><path class="ylines-below"/><g class="overlines-below"/><g class="xaxislayer-below"/><g class="yaxislayer-below"/><g class="overaxes-below"/><g class="plot" transform="translate(60, 60)" clip-path="url('#clip0e5266xyplot')"><g class="scatterlayer mlayer"><g class="trace scatter trace7a3551" style="stroke-miterlimit: 2; opacity: 1;"><g class="fills"/><g class="errorbars"/><g class="lines"><path class="js-line" d="M0,313.5L3.3,272.57L6.59,249.14L9.89,246.76L13.18,263.34L16.48,248.56L19.77,256.18L23.07,254.26L26.36,255.69L29.66,227.86L32.95,234.03L39.55,243.15L42.84,244.97L46.14,248.53L49.43,250.06L56.02,254.6L59.32,173.5L62.61,180.6L65.91,185.71L69.2,180.95L72.5,185.79L92.27,208.27L95.57,175.13L98.86,173.37L102.16,113.06L115.34,134.49L118.64,136.45L125.23,144.24L128.52,141.58L131.82,145.68L135.11,146.39L148.3,159.38L151.59,162.21L154.89,158.49L158.18,160.61L174.66,173.51L177.95,143.65L191.14,153.77L194.43,155.67L204.32,162.41L207.61,313.5L210.91,309.83L214.2,307.34L217.5,302.58L220.8,299.61L224.09,298.11L227.39,299.32L230.68,298.66L233.98,295.23L237.27,223.91L240.57,231.89L243.86,239.3L247.16,238.06L250.45,166.44L253.75,176.04L260.34,192.65L263.64,199.53L273.52,214.27L276.82,218.37L293.3,234.27L296.59,234.36L306.48,240.92L309.77,238.51L316.36,240.36L319.66,237.85L322.95,239.9L326.25,241.07L336.14,245.09L339.43,243.57L346.02,244.77L349.32,245.53L352.61,232.75L355.91,234.04L362.5,236.84L365.8,238.13L372.39,239.58L375.68,240.96L382.27,243.28L385.57,243.77L392.16,245.77L395.45,246.31L402.05,247.95L405.34,248.98L408.64,249.44L411.93,227.01L415.23,313.5L418.52,283.07L421.82,278.87L425.11,287.15L428.41,291.65L431.7,16.5L435,63.08L438.3,88.28L444.89,137.73L448.18,153.84L451.48,164.51L454.77,166.37L461.36,183.79L464.66,190.66L467.95,195.09L471.25,201.47L474.55,199.01L477.84,204.54L484.43,213.71L487.73,217.67L491.02,220.81L494.32,220.33L497.61,223.91L500.91,226.35L507.5,231.15L510.8,205.69L533.86,223.16L537.16,225.05L550.34,233.15L553.64,234.92L563.52,239.34L566.82,203.58L580,211.9" style="vector-effect: non-scaling-stroke; fill: none; stroke: rgb(31, 119, 180); stroke-opacity: 1; stroke-width: 2px; opacity: 1;"/></g><g class="points"/><g class="text"/></g></g></g><g class="overplot"/><path class="xlines-above crisp" d="M0,0" style="fill: none;"/><path class="ylines-above crisp" d="M0,0" style="fill: none;"/><g class="overlines-above"/><g class="xaxislayer-above"><g class="xtick"><text text-anchor="middle" x="0" y="403" transform="translate(60,0)" style="font-family: 'Open Sans', verdana, arial, sans-serif; font-size: 12px; fill: rgb(68, 68, 68); fill-opacity: 1; white-space: pre;">0</text></g><g class="xtick"><text text-anchor="middle" x="0" y="403" transform="translate(224.77,0)" style="font-family: 'Open Sans', verdana, arial, sans-serif; font-size: 12px; fill: rgb(68, 68, 68); fill-opacity: 1; white-space: pre;">50</text></g><g class="xtick"><text text-anchor="middle" x="0" y="403" transform="translate(389.55,0)" style="font-family: 'Open Sans', verdana, arial, sans-serif; font-size: 12px; fill: rgb(68, 68, 68); fill-opacity: 1; white-space: pre;">100</text></g><g class="xtick"><text text-anchor="middle" x="0" y="403" transform="translate(554.3199999999999,0)" style="font-family: 'Open Sans', verdana, arial, sans-serif; font-size: 12px; fill: rgb(68, 68, 68); fill-opacity: 1; white-space: pre;">150</text></g></g><g class="yaxislayer-above"><g class="ytick"><text text-anchor="end" x="59" y="4.199999999999999" transform="translate(0,373.5)" style="font-family: 'Open Sans', verdana, arial, sans-serif; font-size: 12px; fill: rgb(68, 68, 68); fill-opacity: 1; white-space: pre;">0</text></g><g class="ytick"><text text-anchor="end" x="59" y="4.199999999999999" transform="translate(0,291.02)" style="font-family: 'Open Sans', verdana, arial, sans-serif; font-size: 12px; fill: rgb(68, 68, 68); fill-opacity: 1; white-space: pre;">0.5</text></g><g class="ytick"><text text-anchor="end" x="59" y="4.199999999999999" transform="translate(0,208.54)" style="font-family: 'Open Sans', verdana, arial, sans-serif; font-size: 12px; fill: rgb(68, 68, 68); fill-opacity: 1; white-space: pre;">1</text></g><g class="ytick"><text text-anchor="end" x="59" y="4.199999999999999" transform="translate(0,126.06)" style="font-family: 'Open Sans', verdana, arial, sans-serif; font-size: 12px; fill: rgb(68, 68, 68); fill-opacity: 1; white-space: pre;">1.5</text></g></g><g class="overaxes-above"/></g></g><g class="polarlayer"/><g class="ternarylayer"/><g class="geolayer"/><g class="funnelarealayer"/><g class="pielayer"/><g class="treemaplayer"/><g class="sunburstlayer"/><g class="glimages"/><defs id="topdefs-0e5266"><g class="clips"/></defs><g class="layer-above"><g class="imagelayer"/><g class="shapelayer"/></g><g class="infolayer"><g class="g-gtitle"><text class="gtitle" x="350" y="30" text-anchor="middle" dy="0em" style="font-family: 'Open Sans', verdana, arial, sans-serif; font-size: 17px; fill: rgb(68, 68, 68); opacity: 1; font-weight: normal; white-space: pre;">NLL_loss</text></g><g class="g-xtitle"/><g class="g-ytitle"/></g></svg>